<svg width="124" height="45" viewBox="0 0 124 45" fill="none" xmlns="http://www.w3.org/2000/svg">
<path d="M23.2044 6.74646C23.1218 6.52466 22.9735 6.33332 22.7794 6.19798C22.5852 6.06265 22.3544 5.98977 22.1177 5.98907H17.4134C17.3333 5.98913 17.2553 5.96432 17.1899 5.91808C17.1246 5.87184 17.0752 5.80645 17.0486 5.73094L15.3599 0.944677C15.2772 0.723458 15.1289 0.53278 14.9349 0.398161C14.7408 0.263543 14.5103 0.191406 14.2741 0.191406C14.0379 0.191406 13.8074 0.263543 13.6133 0.398161C13.4193 0.53278 13.271 0.723458 13.1882 0.944677L13.1844 0.957043L11.4996 5.73094C11.473 5.80632 11.4238 5.87163 11.3586 5.91786C11.2934 5.96409 11.2155 5.98897 11.1356 5.98907H6.42968C6.1915 5.98889 5.95904 6.06208 5.76393 6.19868C5.56882 6.33528 5.42052 6.52867 5.3392 6.75253C5.25787 6.9764 5.24748 7.21988 5.30943 7.44986C5.37138 7.67984 5.50266 7.88516 5.68542 8.03789L9.69187 11.3611C9.7518 11.4109 9.7953 11.4776 9.81668 11.5524C9.83806 11.6273 9.83631 11.7069 9.81166 11.7808L8.1284 16.8283C8.05061 17.0617 8.04907 17.3137 8.12401 17.548C8.19895 17.7823 8.34648 17.9867 8.54527 18.1317C8.74405 18.2766 8.98378 18.3545 9.22978 18.3542C9.47578 18.3538 9.71529 18.2752 9.91368 18.1298L14.0453 15.1002C14.1116 15.0517 14.1916 15.0255 14.2737 15.0255C14.3558 15.0255 14.4358 15.0517 14.5021 15.1002L18.6322 18.129C18.8305 18.275 19.0701 18.354 19.3163 18.3546C19.5625 18.3553 19.8026 18.2775 20.0016 18.1326C20.2007 17.9877 20.3485 17.7832 20.4235 17.5487C20.4985 17.3142 20.497 17.0618 20.419 16.8283L18.7357 11.7777C18.7111 11.7038 18.7093 11.6242 18.7307 11.5494C18.7521 11.4745 18.7956 11.4078 18.8555 11.3581L22.8697 8.03016C23.0501 7.87614 23.179 7.67047 23.2388 7.44091C23.2986 7.21136 23.2866 6.96897 23.2044 6.74646Z" fill="#FF624D"/>
<path d="M47.3169 6.74646C47.2344 6.52466 47.0861 6.33332 46.8919 6.19798C46.6978 6.06265 46.467 5.98977 46.2303 5.98907H41.526C41.4459 5.98913 41.3678 5.96432 41.3025 5.91808C41.2371 5.87184 41.1878 5.80645 41.1612 5.73094L39.4725 0.944677C39.3898 0.723458 39.2415 0.53278 39.0474 0.398161C38.8534 0.263543 38.6228 0.191406 38.3867 0.191406C38.1505 0.191406 37.9199 0.263543 37.7259 0.398161C37.5318 0.53278 37.3835 0.723458 37.3008 0.944677L37.2969 0.957043L35.6121 5.73094C35.5856 5.80632 35.5363 5.87163 35.4711 5.91786C35.406 5.96409 35.328 5.98897 35.2481 5.98907H30.5422C30.3041 5.98889 30.0716 6.06208 29.8765 6.19868C29.6814 6.33528 29.5331 6.52867 29.4518 6.75253C29.3704 6.9764 29.36 7.21988 29.422 7.44986C29.4839 7.67984 29.6152 7.88516 29.798 8.03789L33.8044 11.3611C33.8644 11.4109 33.9079 11.4776 33.9292 11.5524C33.9506 11.6273 33.9489 11.7069 33.9242 11.7808L32.241 16.8283C32.1632 17.0617 32.1616 17.3137 32.2366 17.548C32.3115 17.7823 32.459 17.9867 32.6578 18.1317C32.8566 18.2766 33.0963 18.3545 33.3423 18.3542C33.5883 18.3538 33.8279 18.2752 34.0262 18.1298L38.1579 15.1002C38.2241 15.0517 38.3041 15.0255 38.3863 15.0255C38.4684 15.0255 38.5484 15.0517 38.6146 15.1002L42.7447 18.129C42.943 18.275 43.1827 18.354 43.4289 18.3546C43.6751 18.3553 43.9151 18.2775 44.1142 18.1326C44.3133 17.9877 44.461 17.7832 44.5361 17.5487C44.6111 17.3142 44.6095 17.0618 44.5316 16.8283L42.8483 11.7777C42.8237 11.7038 42.8219 11.6242 42.8433 11.5494C42.8647 11.4745 42.9082 11.4078 42.9681 11.3581L46.9823 8.03016C47.1627 7.87614 47.2915 7.67047 47.3514 7.44091C47.4112 7.21136 47.3992 6.96897 47.3169 6.74646Z" fill="#FF624D"/>
<path d="M71.4302 6.74646C71.3477 6.52466 71.1994 6.33332 71.0052 6.19798C70.8111 6.06265 70.5803 5.98977 70.3436 5.98907H65.6393C65.5592 5.98913 65.4811 5.96432 65.4158 5.91808C65.3504 5.87184 65.301 5.80645 65.2745 5.73094L63.5858 0.944677C63.5031 0.723458 63.3548 0.53278 63.1607 0.398161C62.9667 0.263543 62.7361 0.191406 62.4999 0.191406C62.2638 0.191406 62.0332 0.263543 61.8392 0.398161C61.6451 0.53278 61.4968 0.723458 61.4141 0.944677L61.4102 0.957043L59.7254 5.73094C59.6989 5.80632 59.6496 5.87163 59.5844 5.91786C59.5192 5.96409 59.4413 5.98897 59.3614 5.98907H54.6555C54.4174 5.98889 54.1849 6.06208 53.9898 6.19868C53.7947 6.33528 53.6464 6.52867 53.5651 6.75253C53.4837 6.9764 53.4733 7.21988 53.5353 7.44986C53.5972 7.67984 53.7285 7.88516 53.9113 8.03789L57.9177 11.3611C57.9777 11.4109 58.0212 11.4776 58.0425 11.5524C58.0639 11.6273 58.0622 11.7069 58.0375 11.7808L56.3543 16.8283C56.2765 17.0617 56.2749 17.3137 56.3499 17.548C56.4248 17.7823 56.5723 17.9867 56.7711 18.1317C56.9699 18.2766 57.2096 18.3545 57.4556 18.3542C57.7016 18.3538 57.9412 18.2752 58.1395 18.1298L62.2712 15.1002C62.3374 15.0517 62.4174 15.0255 62.4996 15.0255C62.5817 15.0255 62.6617 15.0517 62.7279 15.1002L66.858 18.129C67.0563 18.275 67.296 18.354 67.5422 18.3546C67.7884 18.3553 68.0284 18.2775 68.2275 18.1326C68.4266 17.9877 68.5743 17.7832 68.6494 17.5487C68.7244 17.3142 68.7228 17.0618 68.6449 16.8283L66.9616 11.7777C66.937 11.7038 66.9352 11.6242 66.9566 11.5494C66.978 11.4745 67.0215 11.4078 67.0814 11.3581L71.0956 8.03016C71.276 7.87614 71.4048 7.67047 71.4647 7.44091C71.5245 7.21136 71.5125 6.96897 71.4302 6.74646Z" fill="#FF624D"/>
<path d="M95.543 6.74646C95.4605 6.52466 95.3122 6.33332 95.118 6.19798C94.9239 6.06265 94.6931 5.98977 94.4564 5.98907H89.7521C89.672 5.98913 89.5939 5.96432 89.5286 5.91808C89.4632 5.87184 89.4139 5.80645 89.3873 5.73094L87.6986 0.944677C87.6159 0.723458 87.4676 0.53278 87.2735 0.398161C87.0795 0.263543 86.8489 0.191406 86.6127 0.191406C86.3766 0.191406 86.146 0.263543 85.952 0.398161C85.7579 0.53278 85.6096 0.723458 85.5269 0.944677L85.523 0.957043L83.8382 5.73094C83.8117 5.80632 83.7624 5.87163 83.6972 5.91786C83.6321 5.96409 83.5541 5.98897 83.4742 5.98907H78.7683C78.5302 5.98889 78.2977 6.06208 78.1026 6.19868C77.9075 6.33528 77.7592 6.52867 77.6779 6.75253C77.5965 6.9764 77.5861 7.21988 77.6481 7.44986C77.71 7.67984 77.8413 7.88516 78.0241 8.03789L82.0305 11.3611C82.0905 11.4109 82.134 11.4776 82.1553 11.5524C82.1767 11.6273 82.175 11.7069 82.1503 11.7808L80.4671 16.8283C80.3893 17.0617 80.3877 17.3137 80.4627 17.548C80.5376 17.7823 80.6851 17.9867 80.8839 18.1317C81.0827 18.2766 81.3224 18.3545 81.5684 18.3542C81.8144 18.3538 82.054 18.2752 82.2523 18.1298L86.384 15.1002C86.4502 15.0517 86.5302 15.0255 86.6124 15.0255C86.6945 15.0255 86.7745 15.0517 86.8407 15.1002L90.9708 18.129C91.1691 18.275 91.4088 18.354 91.655 18.3546C91.9012 18.3553 92.1412 18.2775 92.3403 18.1326C92.5394 17.9877 92.6871 17.7832 92.7622 17.5487C92.8372 17.3142 92.8356 17.0618 92.7577 16.8283L91.0744 11.7777C91.0498 11.7038 91.048 11.6242 91.0694 11.5494C91.0908 11.4745 91.1343 11.4078 91.1942 11.3581L95.2084 8.03016C95.3888 7.87614 95.5176 7.67047 95.5775 7.44091C95.6373 7.21136 95.6253 6.96897 95.543 6.74646Z" fill="#FF624D"/>
<path d="M119.656 6.74646C119.574 6.52466 119.425 6.33332 119.231 6.19798C119.037 6.06265 118.806 5.98977 118.569 5.98907H113.865C113.785 5.98913 113.707 5.96432 113.642 5.91808C113.576 5.87184 113.527 5.80645 113.5 5.73094L111.812 0.944677C111.729 0.723458 111.581 0.53278 111.387 0.398161C111.193 0.263543 110.962 0.191406 110.726 0.191406C110.49 0.191406 110.259 0.263543 110.065 0.398161C109.871 0.53278 109.723 0.723458 109.64 0.944677L109.636 0.957043L107.951 5.73094C107.925 5.80632 107.875 5.87163 107.81 5.91786C107.745 5.96409 107.667 5.98897 107.587 5.98907H102.881C102.643 5.98889 102.411 6.06208 102.216 6.19868C102.021 6.33528 101.872 6.52867 101.791 6.75253C101.71 6.9764 101.699 7.21988 101.761 7.44986C101.823 7.67984 101.954 7.88516 102.137 8.03789L106.144 11.3611C106.204 11.4109 106.247 11.4776 106.268 11.5524C106.29 11.6273 106.288 11.7069 106.263 11.7808L104.58 16.8283C104.502 17.0617 104.501 17.3137 104.576 17.548C104.651 17.7823 104.798 17.9867 104.997 18.1317C105.196 18.2766 105.435 18.3545 105.681 18.3542C105.927 18.3538 106.167 18.2752 106.365 18.1298L110.497 15.1002C110.563 15.0517 110.643 15.0255 110.725 15.0255C110.808 15.0255 110.888 15.0517 110.954 15.1002L115.084 18.129C115.282 18.275 115.522 18.354 115.768 18.3546C116.014 18.3553 116.254 18.2775 116.453 18.1326C116.652 17.9877 116.8 17.7832 116.875 17.5487C116.95 17.3142 116.949 17.0618 116.871 16.8283L115.187 11.7777C115.163 11.7038 115.161 11.6242 115.182 11.5494C115.204 11.4745 115.247 11.4078 115.307 11.3581L119.321 8.03016C119.502 7.87614 119.631 7.67047 119.691 7.44091C119.75 7.21136 119.738 6.96897 119.656 6.74646Z" fill="#FF624D"/>
<path d="M15.3733 32.9091C15.3733 29.5781 13.3051 27.679 10.6056 27.679C7.89107 27.679 5.8378 29.5781 5.8378 32.9091C5.8378 36.2251 7.89107 38.1392 10.6056 38.1392C13.3051 38.1392 15.3733 36.2401 15.3733 32.9091ZM13.1908 32.9091C13.1908 35.0668 12.1666 36.2351 10.6056 36.2351C9.03951 36.2351 8.02033 35.0668 8.02033 32.9091C8.02033 30.7514 9.03951 29.5831 10.6056 29.5831C12.1666 29.5831 13.1908 30.7514 13.1908 32.9091ZM19.0461 33.5852C19.051 32.6009 19.6377 32.0241 20.4928 32.0241C21.343 32.0241 21.855 32.581 21.8501 33.5156V38H23.968V33.1378C23.968 31.358 22.9239 30.2642 21.333 30.2642C20.1995 30.2642 19.3792 30.821 19.0361 31.7109H18.9466V30.3636H16.9282V38H19.0461V33.5852ZM28.9172 38H31.0699V34.6989H32.8795C35.2211 34.6989 36.5834 33.3018 36.5834 31.2685C36.5834 29.245 35.246 27.8182 32.9342 27.8182H28.9172V38ZM31.0699 32.9737V29.5781H32.5216C33.7645 29.5781 34.366 30.2543 34.366 31.2685C34.366 32.2777 33.7645 32.9737 32.5315 32.9737H31.0699ZM37.9419 38H40.0597V33.6797C40.0597 32.7401 40.7458 32.0938 41.6805 32.0938C41.9738 32.0938 42.3765 32.1435 42.5754 32.2081V30.3288C42.3865 30.2841 42.123 30.2543 41.9092 30.2543C41.0541 30.2543 40.3531 30.7514 40.0747 31.696H39.9951V30.3636H37.9419V38ZM46.7652 38.1491C49.0819 38.1491 50.5237 36.5632 50.5237 34.2116C50.5237 31.8452 49.0819 30.2642 46.7652 30.2642C44.4484 30.2642 43.0067 31.8452 43.0067 34.2116C43.0067 36.5632 44.4484 38.1491 46.7652 38.1491ZM46.7751 36.5085C45.7062 36.5085 45.1594 35.5291 45.1594 34.1967C45.1594 32.8643 45.7062 31.88 46.7751 31.88C47.8241 31.88 48.371 32.8643 48.371 34.1967C48.371 35.5291 47.8241 36.5085 46.7751 36.5085ZM54.7148 38.1243C55.9477 38.1243 56.589 37.4134 56.8824 36.777H56.9719V38H59.0599V27.8182H56.947V31.6463H56.8824C56.599 31.0249 55.9875 30.2642 54.7098 30.2642C53.0344 30.2642 51.6175 31.5668 51.6175 34.1918C51.6175 36.7472 52.9747 38.1243 54.7148 38.1243ZM55.3859 36.4389C54.3469 36.4389 53.7801 35.5142 53.7801 34.1818C53.7801 32.8594 54.3369 31.9496 55.3859 31.9496C56.415 31.9496 56.9917 32.8196 56.9917 34.1818C56.9917 35.544 56.4051 36.4389 55.3859 36.4389ZM65.6982 34.7486C65.7032 35.7727 65.0022 36.3097 64.2416 36.3097C63.4411 36.3097 62.9241 35.7479 62.9191 34.848V30.3636H60.8012V35.2259C60.8062 37.0107 61.8502 38.0994 63.3865 38.0994C64.5349 38.0994 65.3602 37.5078 65.7032 36.6129H65.7828V38H67.8161V30.3636H65.6982V34.7486ZM72.9605 38.1491C74.9939 38.1491 76.2716 36.956 76.371 35.201H74.3724C74.2481 36.0163 73.7112 36.4737 72.9854 36.4737C71.996 36.4737 71.3547 35.6435 71.3547 34.1818C71.3547 32.7401 72.001 31.9148 72.9854 31.9148C73.7609 31.9148 74.2581 32.4268 74.3724 33.1875H76.371C76.2815 31.4226 74.9442 30.2642 72.9506 30.2642C70.6338 30.2642 69.202 31.87 69.202 34.2116C69.202 36.5334 70.6089 38.1491 72.9605 38.1491ZM81.7888 30.3636H80.352V28.5341H78.2341V30.3636H77.1901V31.9545H78.2341V35.9318C78.2242 37.4283 79.2433 38.169 80.7796 38.1044C81.3264 38.0845 81.7142 37.9751 81.928 37.9055L81.5949 36.3295C81.4905 36.3494 81.2668 36.3991 81.0679 36.3991C80.6453 36.3991 80.352 36.2401 80.352 35.6534V31.9545H81.7888V30.3636ZM86.4484 38H88.6011V33.794H92.9711V38H95.1189V27.8182H92.9711V32.0192H88.6011V27.8182H86.4484V38ZM101.751 34.7486C101.756 35.7727 101.055 36.3097 100.294 36.3097C99.4939 36.3097 98.9768 35.7479 98.9719 34.848V30.3636H96.854V35.2259C96.8589 37.0107 97.903 38.0994 99.4392 38.0994C100.588 38.0994 101.413 37.5078 101.756 36.6129H101.835V38H103.869V30.3636H101.751V34.7486ZM107.681 33.5852C107.686 32.6009 108.272 32.0241 109.128 32.0241C109.978 32.0241 110.49 32.581 110.485 33.5156V38H112.603V33.1378C112.603 31.358 111.559 30.2642 109.968 30.2642C108.834 30.2642 108.014 30.821 107.671 31.7109H107.581V30.3636H105.563V38H107.681V33.5852ZM118.334 30.3636H116.897V28.5341H114.779V30.3636H113.735V31.9545H114.779V35.9318C114.769 37.4283 115.788 38.169 117.324 38.1044C117.871 38.0845 118.259 37.9751 118.473 37.9055L118.14 36.3295C118.035 36.3494 117.812 36.3991 117.613 36.3991C117.19 36.3991 116.897 36.2401 116.897 35.6534V31.9545H118.334V30.3636Z" fill="#F2F2F2"/>
</svg>
