<svg width="90" height="33" viewBox="0 0 90 33" fill="none" xmlns="http://www.w3.org/2000/svg">
<path d="M14.1257 5.12037C14.0612 4.94712 13.9454 4.79765 13.7937 4.69194C13.6421 4.58623 13.4618 4.5293 13.2769 4.52875H9.6022C9.53966 4.52879 9.47866 4.50942 9.42762 4.4733C9.37658 4.43718 9.33801 4.3861 9.31725 4.32711L7.99817 0.588405C7.93356 0.415604 7.81771 0.266658 7.66613 0.161503C7.51454 0.0563482 7.33446 0 7.14997 0C6.96549 0 6.7854 0.0563482 6.63382 0.161503C6.48224 0.266658 6.36639 0.415604 6.30178 0.588405L6.29876 0.598065L4.9827 4.32711C4.96197 4.386 4.9235 4.43701 4.87257 4.47312C4.82165 4.50924 4.76078 4.52867 4.69836 4.52875H1.02244C0.83639 4.52861 0.654813 4.58578 0.502404 4.69248C0.349994 4.79919 0.234151 4.95025 0.170628 5.12512C0.107105 5.29999 0.0989866 5.49018 0.147376 5.66982C0.195766 5.84947 0.298316 6.00985 0.441078 6.12916L3.57065 8.72506C3.61746 8.76391 3.65144 8.816 3.66814 8.87449C3.68484 8.93299 3.68347 8.99516 3.66422 9.05287L2.34937 12.9956C2.2886 13.1779 2.2874 13.3748 2.34594 13.5579C2.40448 13.7409 2.51972 13.9005 2.675 14.0137C2.83028 14.1269 3.01754 14.1878 3.2097 14.1875C3.40185 14.1873 3.58895 14.1259 3.74391 14.0123L6.97128 11.6458C7.02303 11.6078 7.08552 11.5874 7.14967 11.5874C7.21383 11.5874 7.27631 11.6078 7.32806 11.6458L10.5542 14.0117C10.7091 14.1257 10.8963 14.1874 11.0886 14.1879C11.281 14.1884 11.4685 14.1277 11.624 14.0145C11.7795 13.9013 11.8949 13.7415 11.9535 13.5583C12.0121 13.3752 12.0109 13.1781 11.95 12.9956L10.6351 9.05046C10.6159 8.99275 10.6145 8.93057 10.6312 8.87208C10.6479 8.81358 10.6819 8.7615 10.7287 8.72265L13.8643 6.12312C14.0052 6.0028 14.1059 5.84215 14.1526 5.66283C14.1994 5.48352 14.19 5.29418 14.1257 5.12037Z" fill="#FF624D"/>
<path d="M32.9608 5.12037C32.8964 4.94712 32.7805 4.79765 32.6289 4.69194C32.4772 4.58623 32.2969 4.5293 32.112 4.52875H28.4373C28.3748 4.52879 28.3138 4.50942 28.2628 4.4733C28.2117 4.43718 28.1731 4.3861 28.1524 4.32711L26.8333 0.588405C26.7687 0.415604 26.6528 0.266658 26.5013 0.161503C26.3497 0.0563482 26.1696 0 25.9851 0C25.8006 0 25.6205 0.0563482 25.469 0.161503C25.3174 0.266658 25.2015 0.415604 25.1369 0.588405L25.1339 0.598065L23.8178 4.32711C23.7971 4.386 23.7586 4.43701 23.7077 4.47312C23.6568 4.50924 23.5959 4.52867 23.5335 4.52875H19.8576C19.6715 4.52861 19.4899 4.58578 19.3375 4.69248C19.1851 4.79919 19.0693 4.95025 19.0058 5.12512C18.9422 5.29999 18.9341 5.49018 18.9825 5.66982C19.0309 5.84947 19.1335 6.00985 19.2762 6.12916L22.4058 8.72506C22.4526 8.76391 22.4866 8.816 22.5033 8.87449C22.52 8.93299 22.5186 8.99516 22.4994 9.05287L21.1845 12.9956C21.1237 13.1779 21.1225 13.3748 21.1811 13.5579C21.2396 13.7409 21.3549 13.9005 21.5101 14.0137C21.6654 14.1269 21.8527 14.1878 22.0448 14.1875C22.237 14.1873 22.4241 14.1259 22.579 14.0123L25.8064 11.6458C25.8582 11.6078 25.9207 11.5874 25.9848 11.5874C26.049 11.5874 26.1114 11.6078 26.1632 11.6458L29.3894 14.0117C29.5443 14.1257 29.7314 14.1874 29.9238 14.1879C30.1161 14.1884 30.3036 14.1277 30.4591 14.0145C30.6146 13.9013 30.73 13.7415 30.7886 13.5583C30.8472 13.3752 30.846 13.1781 30.7851 12.9956L29.4703 9.05046C29.451 8.99275 29.4496 8.93057 29.4663 8.87208C29.483 8.81358 29.517 8.7615 29.5638 8.72265L32.6994 6.12312C32.8404 6.0028 32.941 5.84215 32.9877 5.66283C33.0345 5.48352 33.0251 5.29418 32.9608 5.12037Z" fill="#FF624D"/>
<path d="M51.7965 5.12037C51.7321 4.94712 51.6163 4.79765 51.4646 4.69194C51.3129 4.58623 51.1326 4.5293 50.9477 4.52875H47.273C47.2105 4.52879 47.1495 4.50942 47.0985 4.4733C47.0474 4.43718 47.0088 4.3861 46.9881 4.32711L45.669 0.588405C45.6044 0.415604 45.4886 0.266658 45.337 0.161503C45.1854 0.0563482 45.0053 0 44.8208 0C44.6363 0 44.4562 0.0563482 44.3047 0.161503C44.1531 0.266658 44.0372 0.415604 43.9726 0.588405L43.9696 0.598065L42.6535 4.32711C42.6328 4.386 42.5943 4.43701 42.5434 4.47312C42.4925 4.50924 42.4316 4.52867 42.3692 4.52875H38.6933C38.5072 4.52861 38.3257 4.58578 38.1732 4.69248C38.0208 4.79919 37.905 4.95025 37.8415 5.12512C37.7779 5.29999 37.7698 5.49018 37.8182 5.66982C37.8666 5.84947 37.9692 6.00985 38.1119 6.12916L41.2415 8.72506C41.2883 8.76391 41.3223 8.816 41.339 8.87449C41.3557 8.93299 41.3543 8.99516 41.3351 9.05287L40.0202 12.9956C39.9594 13.1779 39.9582 13.3748 40.0168 13.5579C40.0753 13.7409 40.1906 13.9005 40.3458 14.0137C40.5011 14.1269 40.6884 14.1878 40.8805 14.1875C41.0727 14.1873 41.2598 14.1259 41.4147 14.0123L44.6421 11.6458C44.6939 11.6078 44.7564 11.5874 44.8205 11.5874C44.8847 11.5874 44.9472 11.6078 44.9989 11.6458L48.2251 14.0117C48.38 14.1257 48.5671 14.1874 48.7595 14.1879C48.9518 14.1884 49.1393 14.1277 49.2948 14.0145C49.4503 13.9013 49.5657 13.7415 49.6243 13.5583C49.683 13.3752 49.6817 13.1781 49.6208 12.9956L48.306 9.05046C48.2867 8.99275 48.2853 8.93057 48.302 8.87208C48.3187 8.81358 48.3527 8.7615 48.3995 8.72265L51.5351 6.12312C51.6761 6.0028 51.7767 5.84215 51.8235 5.66283C51.8702 5.48352 51.8608 5.29418 51.7965 5.12037Z" fill="#FF624D"/>
<path d="M70.6319 5.12037C70.5674 4.94712 70.4516 4.79765 70.2999 4.69194C70.1482 4.58623 69.9679 4.5293 69.7831 4.52875H66.1084C66.0458 4.52879 65.9848 4.50942 65.9338 4.4733C65.8827 4.43718 65.8442 4.3861 65.8234 4.32711L64.5043 0.588405C64.4397 0.415604 64.3239 0.266658 64.1723 0.161503C64.0207 0.0563482 63.8406 0 63.6561 0C63.4716 0 63.2916 0.0563482 63.14 0.161503C62.9884 0.266658 62.8726 0.415604 62.8079 0.588405L62.8049 0.598065L61.4889 4.32711C61.4681 4.386 61.4297 4.43701 61.3787 4.47312C61.3278 4.50924 61.2669 4.52867 61.2045 4.52875H57.5286C57.3425 4.52861 57.161 4.58578 57.0086 4.69248C56.8562 4.79919 56.7403 4.95025 56.6768 5.12512C56.6133 5.29999 56.6051 5.49018 56.6535 5.66982C56.7019 5.84947 56.8045 6.00985 56.9472 6.12916L60.0768 8.72506C60.1236 8.76391 60.1576 8.816 60.1743 8.87449C60.191 8.93299 60.1896 8.99516 60.1704 9.05287L58.8555 12.9956C58.7948 13.1779 58.7936 13.3748 58.8521 13.5579C58.9106 13.7409 59.0259 13.9005 59.1812 14.0137C59.3364 14.1269 59.5237 14.1878 59.7159 14.1875C59.908 14.1873 60.0951 14.1259 60.2501 14.0123L63.4774 11.6458C63.5292 11.6078 63.5917 11.5874 63.6558 11.5874C63.72 11.5874 63.7825 11.6078 63.8342 11.6458L67.0604 14.0117C67.2153 14.1257 67.4025 14.1874 67.5948 14.1879C67.7871 14.1884 67.9746 14.1277 68.1301 14.0145C68.2856 13.9013 68.401 13.7415 68.4597 13.5583C68.5183 13.3752 68.517 13.1781 68.4561 12.9956L67.1413 9.05046C67.122 8.99275 67.1207 8.93057 67.1374 8.87208C67.1541 8.81358 67.188 8.7615 67.2349 8.72265L70.3705 6.12312C70.5114 6.0028 70.612 5.84215 70.6588 5.66283C70.7055 5.48352 70.6961 5.29418 70.6319 5.12037Z" fill="#FF624D"/>
<path d="M89.4674 5.12037C89.4029 4.94712 89.2871 4.79765 89.1354 4.69194C88.9838 4.58623 88.8035 4.5293 88.6186 4.52875H84.9439C84.8813 4.52879 84.8203 4.50942 84.7693 4.4733C84.7183 4.43718 84.6797 4.3861 84.6589 4.32711L83.3398 0.588405C83.2752 0.415604 83.1594 0.266658 83.0078 0.161503C82.8562 0.0563482 82.6761 0 82.4917 0C82.3072 0 82.1271 0.0563482 81.9755 0.161503C81.8239 0.266658 81.7081 0.415604 81.6435 0.588405L81.6404 0.598065L80.3244 4.32711C80.3037 4.386 80.2652 4.43701 80.2143 4.47312C80.1633 4.50924 80.1025 4.52867 80.04 4.52875H76.3641C76.1781 4.52861 75.9965 4.58578 75.8441 4.69248C75.6917 4.79919 75.5758 4.95025 75.5123 5.12512C75.4488 5.29999 75.4407 5.49018 75.4891 5.66982C75.5374 5.84947 75.64 6.00985 75.7828 6.12916L78.9123 8.72506C78.9591 8.76391 78.9931 8.816 79.0098 8.87449C79.0265 8.93299 79.0252 8.99516 79.0059 9.05287L77.691 12.9956C77.6303 13.1779 77.6291 13.3748 77.6876 13.5579C77.7462 13.7409 77.8614 13.9005 78.0167 14.0137C78.172 14.1269 78.3592 14.1878 78.5514 14.1875C78.7435 14.1873 78.9306 14.1259 79.0856 14.0123L82.313 11.6458C82.3647 11.6078 82.4272 11.5874 82.4914 11.5874C82.5555 11.5874 82.618 11.6078 82.6697 11.6458L85.8959 14.0117C86.0508 14.1257 86.238 14.1874 86.4303 14.1879C86.6226 14.1884 86.8101 14.1277 86.9656 14.0145C87.1211 13.9013 87.2366 13.7415 87.2952 13.5583C87.3538 13.3752 87.3526 13.1781 87.2917 12.9956L85.9768 9.05046C85.9575 8.99275 85.9562 8.93057 85.9729 8.87208C85.9896 8.81358 86.0236 8.7615 86.0704 8.72265L89.206 6.12312C89.3469 6.0028 89.4475 5.84215 89.4943 5.66283C89.541 5.48352 89.5316 5.29418 89.4674 5.12037Z" fill="#FF624D"/>
<path d="M10.4069 27.1263C10.4069 23.9143 8.41255 22.083 5.80939 22.083C3.19185 22.083 1.21191 23.9143 1.21191 27.1263C1.21191 30.324 3.19185 32.1697 5.80939 32.1697C8.41255 32.1697 10.4069 30.3383 10.4069 27.1263ZM8.30229 27.1263C8.30229 29.2069 7.31472 30.3335 5.80939 30.3335C4.29927 30.3335 3.3165 29.2069 3.3165 27.1263C3.3165 25.0457 4.29927 23.9191 5.80939 23.9191C7.31472 23.9191 8.30229 25.0457 8.30229 27.1263Z" fill="white"/>
<path d="M14.4885 27.7783C14.4933 26.8291 15.059 26.273 15.8835 26.273C16.7033 26.273 17.1971 26.8099 17.1923 27.7112V32.0354H19.2346V27.3469C19.2346 25.6306 18.2278 24.5759 16.6937 24.5759C15.6007 24.5759 14.8097 25.1128 14.4789 25.971H14.3926V24.6718H12.4462V32.0354H14.4885V27.7783Z" fill="white"/>
<path d="M31.5973 25.3909H33.7067C33.4382 23.4493 31.7268 22.083 29.5071 22.083C26.9135 22.083 24.9144 23.9527 24.9144 27.1359C24.9144 30.2425 26.7841 32.1697 29.5503 32.1697C32.0288 32.1697 33.7978 30.602 33.7978 28.018V26.7812H29.6893V28.344H31.7987C31.7699 29.5617 30.9405 30.3335 29.5599 30.3335C28.0018 30.3335 27.019 29.1686 27.019 27.1167C27.019 25.0745 28.0401 23.9191 29.5407 23.9191C30.6097 23.9191 31.3336 24.4704 31.5973 25.3909Z" fill="white"/>
<path d="M40.5808 28.9001C40.5856 29.8877 39.9096 30.4055 39.1762 30.4055C38.4043 30.4055 37.9057 29.8637 37.9009 28.996V24.6718H35.8587V29.3604C35.8635 31.0814 36.8702 32.1313 38.3516 32.1313C39.459 32.1313 40.2548 31.5608 40.5856 30.6979H40.6623V32.0354H42.6231V24.6718H40.5808V28.9001Z" fill="white"/>
<path d="M44.7966 32.0354H46.8389V27.6153C46.8389 26.8003 47.3566 26.2586 48.0374 26.2586C48.7086 26.2586 49.1592 26.7188 49.1592 27.4427V32.0354H51.1391V27.5386C51.1391 26.7764 51.5754 26.2586 52.3185 26.2586C52.9705 26.2586 53.4595 26.6661 53.4595 27.4859V32.0354H55.4969V27.0832C55.4969 25.4868 54.5477 24.5759 53.1766 24.5759C52.098 24.5759 51.259 25.1272 50.957 25.971H50.8803C50.6454 25.1176 49.8927 24.5759 48.8812 24.5759C47.8888 24.5759 47.1361 25.1032 46.8293 25.971H46.743V24.6718H44.7966V32.0354Z" fill="white"/>
<path d="M57.6501 32.0354H59.6924V27.8694C59.6924 26.9633 60.3539 26.3401 61.2552 26.3401C61.5381 26.3401 61.9264 26.3881 62.1182 26.4504V24.6382C61.936 24.5951 61.6819 24.5663 61.4758 24.5663C60.6512 24.5663 59.9752 25.0457 59.7068 25.9566H59.6301V24.6718H57.6501V32.0354Z" fill="white"/>
<path d="M66.6983 32.1792C68.9323 32.1792 70.3226 30.6499 70.3226 28.3824C70.3226 26.1004 68.9323 24.5759 66.6983 24.5759C64.4643 24.5759 63.074 26.1004 63.074 28.3824C63.074 30.6499 64.4643 32.1792 66.6983 32.1792ZM66.7079 30.5972C65.6772 30.5972 65.1498 29.6528 65.1498 28.368C65.1498 27.0832 65.6772 26.134 66.7079 26.134C67.7195 26.134 68.2468 27.0832 68.2468 28.368C68.2468 29.6528 67.7195 30.5972 66.7079 30.5972Z" fill="white"/>
<path d="M74.2904 32.1744C75.3786 32.1744 76.0833 31.6998 76.4429 31.0143H76.5004V32.0354H78.4372V27.0688C78.4372 25.3142 76.951 24.5759 75.3115 24.5759C73.5473 24.5759 72.3871 25.4197 72.1043 26.762L73.9931 26.9154C74.1322 26.4264 74.5684 26.0669 75.3019 26.0669C75.997 26.0669 76.3949 26.4168 76.3949 27.0209V27.0496C76.3949 27.5242 75.8916 27.5866 74.6115 27.7112C73.1542 27.8454 71.8454 28.3344 71.8454 29.9788C71.8454 31.4362 72.8857 32.1744 74.2904 32.1744ZM74.8752 30.765C74.2472 30.765 73.7966 30.4726 73.7966 29.9117C73.7966 29.3364 74.2712 29.0535 74.9903 28.9529C75.4361 28.8905 76.1648 28.7851 76.4093 28.6221V29.4035C76.4093 30.1753 75.7717 30.765 74.8752 30.765Z" fill="white"/>
<path d="M83.275 32.1553C84.464 32.1553 85.0824 31.4697 85.3652 30.8561H85.4515V32.0354H87.465V22.2172H85.4276V25.9086H85.3652C85.092 25.3094 84.5023 24.5759 83.2702 24.5759C81.6547 24.5759 80.2884 25.8319 80.2884 28.3632C80.2884 30.8273 81.5971 32.1553 83.275 32.1553ZM83.9222 30.5301C82.9203 30.5301 82.3738 29.6384 82.3738 28.3536C82.3738 27.0784 82.9107 26.2011 83.9222 26.2011C84.9146 26.2011 85.4707 27.04 85.4707 28.3536C85.4707 29.6672 84.905 30.5301 83.9222 30.5301Z" fill="white"/>
</svg>
