<svg width="24" height="24" viewBox="0 0 24 24" fill="none" xmlns="http://www.w3.org/2000/svg">
<path fill-rule="evenodd" clip-rule="evenodd" d="M16.8394 0.854187C16.9818 2.16065 16.4565 3.47001 15.6783 4.414C14.8991 5.35507 13.6226 6.08875 12.3714 5.99183C12.2028 4.7096 12.8337 3.37697 13.5548 2.54154C14.3592 1.59949 15.718 0.899739 16.8394 0.854187ZM20.4352 9.23359C20.2311 9.35903 18.1406 10.6441 18.1661 13.248C18.1935 16.3653 20.8348 17.4521 20.9929 17.5172C20.9968 17.5188 20.9992 17.5198 21 17.5202C20.9986 17.5243 20.9961 17.5324 20.9923 17.5444C20.9273 17.7522 20.5005 19.1164 19.5365 20.5246C18.6565 21.8117 17.7436 23.093 16.3053 23.1182C15.6135 23.131 15.1514 22.9311 14.671 22.7234C14.1682 22.5059 13.6454 22.2798 12.8182 22.2798C11.9523 22.2798 11.4054 22.5128 10.8785 22.7372C10.4216 22.9318 9.97978 23.12 9.35818 23.1443C7.97031 23.1977 6.91099 21.7565 6.02516 20.4742C4.20988 17.8507 2.82298 13.0619 4.68478 9.83068C5.60841 8.22474 7.26184 7.21 9.0558 7.1819C9.82818 7.16816 10.5772 7.4655 11.2326 7.72567C11.7335 7.92451 12.1798 8.10165 12.54 8.10165C12.8647 8.10165 13.2994 7.93024 13.8062 7.73044C14.6034 7.41612 15.5789 7.03152 16.5844 7.13344C17.2725 7.16251 19.2061 7.41159 20.4476 9.2259C20.4449 9.2276 20.4407 9.23016 20.4352 9.23359Z" fill="#121212"/>
</svg>
