<svg width="24" height="24" viewBox="0 0 24 24" fill="none" xmlns="http://www.w3.org/2000/svg">
<g clip-path="url(#clip0)">
<path d="M15.122 2.18404L15.122 2.18404C12.0277 -0.0538485 8.0286 -0.621088 4.43403 0.668042V0.668041C3.90936 0.840492 3.62383 1.40562 3.79628 1.93029C3.89548 2.23211 4.13221 2.46884 4.43403 2.56804L4.43403 2.56804C9.64705 4.29419 12.4737 9.91949 10.7476 15.1325C9.75942 18.1168 7.41826 20.4579 4.43403 21.4461V21.4461C3.90936 21.6185 3.62383 22.1837 3.79628 22.7083C3.89548 23.0102 4.13221 23.2469 4.43403 23.3461H4.43403C5.70791 23.7754 7.04275 23.9962 8.38703 24.0001H8.38703C10.8142 23.9982 13.1778 23.2242 15.136 21.7901L15.136 21.7901C18.2911 19.5175 20.1871 15.8879 20.25 12.0001V12.0001C20.1858 8.10214 18.2849 4.46333 15.1221 2.1841L15.122 2.18404ZM13.966 20.167V20.167C12.4191 21.3005 10.564 21.9367 8.64703 21.991V21.991C8.50901 21.995 8.39394 21.8863 8.39 21.7483C8.38768 21.667 8.42498 21.5898 8.49003 21.541V21.541C13.7576 17.5777 14.8148 10.0945 10.8514 4.82694C10.1763 3.92968 9.378 3.13217 8.48003 2.458V2.458C8.36953 2.37521 8.34707 2.21852 8.42985 2.10803C8.47835 2.0433 8.55517 2.00603 8.63603 2.008H8.63603C10.5497 2.05417 12.404 2.68202 13.952 3.808L13.952 3.808C16.6005 5.70835 18.1949 8.74877 18.252 12.008V12.008C18.1911 15.2517 16.6023 18.2762 13.966 20.167L13.966 20.167Z" fill="black"/>
</g>
<defs>
<clipPath id="clip0">
<path d="M0 0H24V24H0V0Z" fill="white"/>
</clipPath>
</defs>
</svg>
