<svg width="24" height="24" viewBox="0 0 24 24" fill="none" xmlns="http://www.w3.org/2000/svg">
<g clip-path="url(#clip0)">
<path d="M21.578 11.135C21.5539 11.056 21.5106 10.9841 21.4519 10.9259C21.3932 10.8676 21.321 10.8249 21.2417 10.8014C21.1625 10.7779 21.0786 10.7744 20.9977 10.7913C20.9168 10.8082 20.8413 10.8449 20.778 10.898C20.188 11.3996 19.5331 11.8194 18.831 12.146C18.7942 12.1633 18.7537 12.1712 18.7131 12.1692C18.6725 12.1671 18.633 12.1552 18.5981 12.1344C18.5632 12.1135 18.5339 12.0845 18.5128 12.0498C18.4917 12.015 18.4794 11.9756 18.477 11.935C18.2563 9.04283 17.0854 6.30476 15.1467 4.1472C13.208 1.98964 10.6102 0.533685 7.758 0.00604545C7.66431 -0.00883604 7.56832 0.00324388 7.48123 0.0408747C7.39415 0.0785054 7.31957 0.140134 7.2662 0.218564C7.21283 0.296995 7.18287 0.38899 7.17983 0.483807C7.17678 0.578625 7.20077 0.672353 7.249 0.754046C8.06981 2.20108 8.50087 3.83643 8.5 5.50005C8.5004 6.63702 8.28703 7.76392 7.871 8.82205C7.85402 8.86471 7.82567 8.9019 7.78902 8.92957C7.75237 8.95723 7.70884 8.97432 7.66316 8.97896C7.61747 8.9836 7.57139 8.97562 7.52993 8.95589C7.48847 8.93615 7.45321 8.90543 7.428 8.86705C6.97054 8.1587 6.61758 7.38811 6.38 6.57905C6.3565 6.49956 6.31361 6.42716 6.25518 6.36836C6.19676 6.30957 6.12463 6.26622 6.04529 6.24222C5.96595 6.21822 5.88189 6.21432 5.80067 6.23087C5.71945 6.24743 5.64362 6.28391 5.58 6.33705C4.45773 7.27356 3.55525 8.44553 2.93656 9.76984C2.31787 11.0941 1.99813 12.5384 2 14C2 14.18 2 14.359 2.01 14.537C2.12422 17.1578 3.26367 19.6287 5.18273 21.4172C7.10178 23.2057 9.64676 24.1685 12.2691 24.098C14.8914 24.0276 17.381 22.9295 19.2012 21.0406C21.0215 19.1517 22.0266 16.6232 22 14C22.0012 13.0295 21.859 12.064 21.578 11.135V11.135ZM12 21.25C11.4658 21.2477 10.9375 21.1388 10.4458 20.9299C9.95421 20.7209 9.50917 20.4161 9.13674 20.0331C8.7643 19.6501 8.47195 19.1968 8.27677 18.6995C8.08159 18.2023 7.9875 17.6711 8 17.137C8.01831 15.6609 8.46839 14.2224 9.29472 12.9991C10.121 11.7758 11.2874 10.8212 12.65 10.253C12.7009 10.233 12.757 10.2302 12.8097 10.245C12.8623 10.2598 12.9087 10.2914 12.9418 10.335C12.9748 10.3786 12.9928 10.4318 12.9928 10.4865C12.9928 10.5412 12.975 10.5944 12.942 10.638C12.5138 11.2333 12.2457 11.9285 12.1634 12.6571C12.0811 13.3858 12.1874 14.1233 12.472 14.799C12.489 14.8341 12.5137 14.8647 12.5444 14.8887C12.5751 14.9126 12.6109 14.9291 12.649 14.937C12.6872 14.9445 12.7266 14.9429 12.7641 14.9325C12.8016 14.9221 12.8361 14.9031 12.865 14.877C13.2053 14.6024 13.4603 14.2364 13.6 13.822C13.6099 13.7871 13.6274 13.7549 13.6512 13.7275C13.6751 13.7002 13.7047 13.6785 13.738 13.664C13.7711 13.6487 13.8071 13.6408 13.8435 13.6408C13.8799 13.6408 13.9159 13.6487 13.949 13.664C14.6087 13.9901 15.1562 14.5054 15.5216 15.1442C15.8869 15.7829 16.0535 16.5161 16 17.25C16.0106 17.7782 15.9144 18.3032 15.7171 18.7932C15.5199 19.2833 15.2256 19.7285 14.8521 20.1021C14.4785 20.4757 14.0333 20.7699 13.5432 20.9672C13.0531 21.1644 12.5282 21.2607 12 21.25V21.25Z" fill="black"/>
</g>
<defs>
<clipPath id="clip0">
<path d="M0 0H24V24H0V0Z" fill="white"/>
</clipPath>
</defs>
</svg>
