<svg width="24" height="24" viewBox="0 0 24 24" fill="none" xmlns="http://www.w3.org/2000/svg">
<g clip-path="url(#clip0)">
<path d="M23.064 9.715V9.715C22.8905 9.52195 22.5982 9.49371 22.391 9.65L20.939 10.743C20.927 10.752 20.914 10.762 20.902 10.773L20.863 10.8L19.207 12.047V12.047C19.1479 12.0913 19.1149 12.1623 19.119 12.236V12.236C19.1254 12.3267 19.1224 12.4179 19.11 12.508V12.508C18.9913 13.3279 18.2305 13.8963 17.4106 13.7777C16.5907 13.659 16.0223 12.8982 16.1409 12.0783C16.2593 11.2601 17.0175 10.692 17.836 10.808V10.808C17.9264 10.8213 18.0152 10.8438 18.101 10.875V10.875C18.1686 10.8988 18.2437 10.8872 18.301 10.844L19.001 10.32V10.32C19.2219 10.1543 19.2667 9.84092 19.101 9.62001L18.241 8.47501V8.47501C18.1483 8.35133 18.0036 8.2775 17.849 8.27501H17.849C17.7968 8.27392 17.7447 8.26991 17.693 8.26301V8.26301C16.8731 8.14435 16.3047 7.38351 16.4233 6.56363C16.542 5.74374 17.3028 5.17529 18.1227 5.29394C18.9409 5.41235 19.509 6.17046 19.393 6.98901V6.98901C19.3849 7.04052 19.3742 7.09159 19.361 7.14201V7.14201C19.3201 7.29095 19.3504 7.4504 19.443 7.57401L20.3 8.72001V8.72001C20.4657 8.94092 20.7791 8.98569 21 8.82001L22.257 7.87401V7.87401C22.3578 7.79787 22.426 7.6864 22.448 7.56201V7.56201C22.482 7.37659 22.4994 7.18852 22.5 7.00001V7.00001C22.5 5.06701 20.933 3.50001 19 3.50001C19 3.50001 19 3.50001 19 3.50001V3.50001C18.9956 3.50056 18.9916 3.49746 18.9911 3.49307C18.991 3.49272 18.991 3.49236 18.991 3.49201V3.49201C18.853 1.52692 17.2199 0.0025216 15.25 1.16038e-05V1.16039e-05C14.4109 0.000356219 13.5967 0.284802 12.94 0.807012V0.807012C12.8198 0.901989 12.7498 1.04682 12.75 1.20001V10C12.75 10.4142 12.4142 10.75 12 10.75C11.5858 10.75 11.25 10.4142 11.25 10V1.20001V1.2C11.2502 1.04681 11.1802 0.901981 11.06 0.807006V0.807006C10.4032 0.284799 9.58903 0.000355444 8.74998 1.14441e-05V1.14441e-05C6.78005 0.00251838 5.14695 1.52692 5.00898 3.49201V3.49201C5.00902 3.49643 5.00546 3.50004 5.00105 3.50007C5.00069 3.50008 5.00034 3.50006 4.99998 3.50001V3.50001C3.06698 3.50001 1.49998 5.06701 1.49998 7.00001V7.00001C1.50098 7.18821 1.51871 7.37595 1.55298 7.56101V7.56101C1.57495 7.6854 1.64319 7.79687 1.74398 7.87301L2.99998 8.82001V8.82001C3.2209 8.9857 3.5343 8.94092 3.69998 8.72001L4.55998 7.57801V7.57801C4.65288 7.45416 4.68316 7.29426 4.64198 7.14501V7.14501C4.62863 7.09461 4.61794 7.04354 4.60998 6.99201V6.99201C4.49371 6.17178 5.06437 5.4126 5.8846 5.29632C6.70483 5.18005 7.46401 5.75071 7.58029 6.57094C7.69633 7.38948 7.12819 8.14759 6.30999 8.26601V8.26601C6.25826 8.27292 6.20618 8.27692 6.15399 8.27801V8.27801C5.99944 8.2805 5.85472 8.35433 5.76199 8.47801L4.89999 9.62301V9.62301C4.73431 9.84392 4.77908 10.1573 4.99999 10.323L5.69999 10.847V10.847C5.75729 10.89 5.83213 10.902 5.89999 10.879V10.879C5.98566 10.847 6.0745 10.8242 6.16499 10.811V10.811C6.98522 10.6947 7.7444 11.2654 7.86068 12.0856C7.97696 12.9059 7.40629 13.665 6.58606 13.7813C5.76752 13.8974 5.00941 13.3292 4.89099 12.511V12.511C4.87873 12.4212 4.87538 12.3305 4.88099 12.24V12.24C4.88599 12.1658 4.85281 12.0942 4.79299 12.05L3.10799 10.779L3.09799 10.773V10.773C3.08682 10.7631 3.07514 10.7537 3.06299 10.745L1.60899 9.65002H1.60899C1.40179 9.49374 1.10946 9.52197 0.935992 9.71502H0.935992C0.355489 10.3369 0.0225624 11.1496 -7.6185e-06 12H-7.62939e-06C0.0482289 13.1813 0.662881 14.2669 1.65099 14.916V14.916C1.85251 15.054 1.92481 15.3175 1.82199 15.539V15.539C1.01519 17.2804 1.7728 19.3461 3.51417 20.1529C3.59606 20.1908 3.6794 20.2256 3.764 20.257V20.257C3.94801 20.3268 4.15586 20.2822 4.295 20.143L5.97 18.469V18.469C6.02234 18.4167 6.04456 18.3414 6.029 18.269V18.269C6.0102 18.1806 6.00049 18.0904 6 18V18C6 17.1716 6.67157 16.5 7.5 16.5C8.32842 16.5 9 17.1716 9 18C9 18.8284 8.32842 19.5 7.5 19.5V19.5C7.40885 19.4997 7.318 19.4896 7.229 19.47V19.47C7.15647 19.4549 7.08122 19.4775 7.029 19.53L5.411 21.149V21.149C5.26449 21.2925 5.22049 21.511 5.3 21.7H5.3C6.0812 23.6008 8.25538 24.5084 10.1562 23.7272C10.479 23.5945 10.7816 23.417 11.055 23.2V23.2C11.1756 23.1052 11.246 22.9604 11.246 22.807V20.5V20.5C11.246 20.0858 11.5818 19.75 11.996 19.75C12.4102 19.75 12.746 20.0858 12.746 20.5V22.8V22.7999C12.746 22.9533 12.8164 23.0982 12.9369 23.193H12.9369C14.5429 24.4752 16.8843 24.2126 18.1664 22.6066C18.3863 22.3312 18.566 22.026 18.7 21.7V21.7C18.7787 21.5129 18.7364 21.2967 18.593 21.153L16.97 19.53V19.53C16.9175 19.478 16.8425 19.4555 16.77 19.47V19.47C16.681 19.4896 16.5901 19.4997 16.499 19.5V19.5C15.6706 19.4995 14.9994 18.8274 15 17.999C15.0005 17.1706 15.6726 16.4995 16.501 16.5C17.329 16.5006 18 17.172 18 18V18C17.9996 18.0908 17.9899 18.1812 17.971 18.27V18.27C17.9554 18.3424 17.9777 18.4177 18.03 18.47L19.7 20.144V20.144C19.8391 20.2832 20.047 20.3278 20.231 20.258V20.258C22.0299 19.5892 22.946 17.5887 22.2771 15.7898C22.2457 15.7052 22.2109 15.6219 22.173 15.54V15.54C22.0702 15.3185 22.1425 15.055 22.344 14.917V14.917C23.3343 14.2688 23.9509 13.1826 24 12V12C23.9774 11.1496 23.6445 10.3369 23.064 9.71501L23.064 9.715Z" fill="black"/>
</g>
<defs>
<clipPath id="clip0">
<path d="M0 0H24V24H0V0Z" fill="white"/>
</clipPath>
</defs>
</svg>
