<svg width="24" height="24" viewBox="0 0 24 24" fill="none" xmlns="http://www.w3.org/2000/svg">
<path d="M5.25 0.247017H1.75C0.921572 0.247017 0.249999 0.91859 0.249999 1.74702V5.24702C0.249999 6.07544 0.921572 6.74702 1.75 6.74702H5.25C6.07843 6.74702 6.75 6.07544 6.75 5.24702V1.74702C6.75 0.91859 6.07843 0.247017 5.25 0.247017Z" fill="black"/>
<path d="M5.25 8.74702H1.75C0.921572 8.74702 0.249999 9.41859 0.249999 10.247V13.747C0.249999 14.5754 0.921572 15.247 1.75 15.247H5.25C6.07843 15.247 6.75 14.5754 6.75 13.747V10.247C6.75 9.41859 6.07843 8.74702 5.25 8.74702Z" fill="black"/>
<path d="M5.25 17.247H1.75C0.921572 17.247 0.249999 17.9186 0.249999 18.747V22.247C0.249999 23.0754 0.921572 23.747 1.75 23.747H5.25C6.07843 23.747 6.75 23.0754 6.75 22.247V18.747C6.75 17.9186 6.07843 17.247 5.25 17.247Z" fill="black"/>
<path d="M13.75 0.247017H10.25C9.42157 0.247017 8.75 0.91859 8.75 1.74702V5.24702C8.75 6.07544 9.42157 6.74702 10.25 6.74702H13.75C14.5784 6.74702 15.25 6.07544 15.25 5.24702V1.74702C15.25 0.91859 14.5784 0.247017 13.75 0.247017Z" fill="black"/>
<path d="M13.75 8.74702H10.25C9.42157 8.74702 8.75 9.41859 8.75 10.247V13.747C8.75 14.5754 9.42157 15.247 10.25 15.247H13.75C14.5784 15.247 15.25 14.5754 15.25 13.747V10.247C15.25 9.41859 14.5784 8.74702 13.75 8.74702Z" fill="black"/>
<path d="M13.75 17.247H10.25C9.42157 17.247 8.75 17.9186 8.75 18.747V22.247C8.75 23.0754 9.42157 23.747 10.25 23.747H13.75C14.5784 23.747 15.25 23.0754 15.25 22.247V18.747C15.25 17.9186 14.5784 17.247 13.75 17.247Z" fill="black"/>
<path d="M22.25 0.247017H18.75C17.9216 0.247017 17.25 0.91859 17.25 1.74702V5.24702C17.25 6.07544 17.9216 6.74702 18.75 6.74702H22.25C23.0784 6.74702 23.75 6.07544 23.75 5.24702V1.74702C23.75 0.91859 23.0784 0.247017 22.25 0.247017Z" fill="black"/>
<path d="M22.25 8.74702H18.75C17.9216 8.74702 17.25 9.41859 17.25 10.247V13.747C17.25 14.5754 17.9216 15.247 18.75 15.247H22.25C23.0784 15.247 23.75 14.5754 23.75 13.747V10.247C23.75 9.41859 23.0784 8.74702 22.25 8.74702Z" fill="black"/>
<path d="M22.25 17.247H18.75C17.9216 17.247 17.25 17.9186 17.25 18.747V22.247C17.25 23.0754 17.9216 23.747 18.75 23.747H22.25C23.0784 23.747 23.75 23.0754 23.75 22.247V18.747C23.75 17.9186 23.0784 17.247 22.25 17.247Z" fill="black"/>
</svg>
