<svg width="24" height="24" viewBox="0 0 24 24" fill="none" xmlns="http://www.w3.org/2000/svg">
<path d="M9.36999 13.6L10.91 15.15C10.27 15.33 9.66999 15.67 9.16999 16.17C9.08034 16.2746 8.97003 16.3597 8.84596 16.4197C8.7219 16.4797 8.58676 16.5134 8.44904 16.5188C8.31133 16.5241 8.17399 16.5009 8.04567 16.4506C7.91734 16.4003 7.8008 16.3241 7.70334 16.2266C7.60589 16.1292 7.52963 16.0126 7.47935 15.8843C7.42908 15.756 7.40587 15.6186 7.41119 15.4809C7.41651 15.3432 7.45024 15.2081 7.51027 15.084C7.57029 14.9599 7.65531 14.8496 7.75999 14.76C8.22631 14.2911 8.76693 13.9025 9.35999 13.61L9.36999 13.6ZM6.43999 10.68L7.88999 12.13C7.33999 12.46 6.81999 12.87 6.33999 13.34C6.14869 13.5038 5.90261 13.5894 5.65094 13.5797C5.39926 13.57 5.16052 13.4656 4.98243 13.2875C4.80433 13.1094 4.7 12.8707 4.69028 12.619C4.68056 12.3673 4.76616 12.1213 4.92999 11.93C5.39999 11.46 5.90999 11.04 6.43999 10.68ZM13.34 9.07996C15.5115 9.37377 17.5255 10.3755 19.07 11.93C19.2338 12.1213 19.3194 12.3673 19.3097 12.619C19.3 12.8707 19.1956 13.1094 19.0176 13.2875C18.8395 13.4656 18.6007 13.57 18.349 13.5797C18.0974 13.5894 17.8513 13.5038 17.66 13.34C17.4447 13.1274 17.2177 12.9271 16.98 12.74L13.33 9.09996L13.34 9.07996ZM3.55999 7.82996L4.99999 9.24996C4.47999 9.61996 3.97999 10.05 3.50999 10.51C3.42403 10.6246 3.31444 10.7194 3.18865 10.788C3.06285 10.8565 2.92379 10.8973 2.78088 10.9074C2.63797 10.9176 2.49454 10.8969 2.36032 10.8468C2.22609 10.7967 2.10419 10.7184 2.00288 10.6171C1.90158 10.5158 1.82322 10.3939 1.77312 10.2596C1.72302 10.1254 1.70235 9.98198 1.71251 9.83907C1.72266 9.69616 1.76341 9.5571 1.83199 9.43131C1.90057 9.30551 1.99537 9.19592 2.10999 9.10996C2.56999 8.62996 3.05999 8.20996 3.56999 7.80996L3.55999 7.82996ZM9.45999 5.22996C13.83 4.43996 18.51 5.72996 21.89 9.10996C21.9947 9.19961 22.0797 9.30993 22.1397 9.43399C22.1997 9.55806 22.2335 9.69319 22.2388 9.83091C22.2441 9.96863 22.2209 10.106 22.1706 10.2343C22.1204 10.3626 22.0441 10.4792 21.9466 10.5766C21.8492 10.6741 21.7326 10.7503 21.6043 10.8006C21.476 10.8509 21.3387 10.8741 21.2009 10.8688C21.0632 10.8634 20.9281 10.8297 20.804 10.7697C20.68 10.7097 20.5696 10.6246 20.48 10.52C19.2791 9.31693 17.8357 8.38347 16.246 7.78171C14.6562 7.17994 12.9565 6.92368 11.26 7.02996L9.45999 5.22996V5.22996Z" fill="black"/>
<path d="M11.9999 20.5C11.6021 20.5 11.2206 20.342 10.9392 20.0607C10.6579 19.7794 10.4999 19.3979 10.4999 19C10.4999 18.6022 10.6579 18.2207 10.9392 17.9394C11.2206 17.6581 11.6021 17.5 11.9999 17.5C12.3977 17.5 12.7793 17.6581 13.0606 17.9394C13.3419 18.2207 13.4999 18.6022 13.4999 19C13.4999 19.3979 13.3419 19.7794 13.0606 20.0607C12.7793 20.342 12.3977 20.5 11.9999 20.5ZM3.29991 4.70003C3.15548 4.50745 3.08536 4.26925 3.10242 4.02914C3.11949 3.78903 3.22259 3.56313 3.3928 3.39292C3.56301 3.22271 3.78891 3.11961 4.02902 3.10254C4.26913 3.08548 4.50734 3.1556 4.69991 3.30003L20.6999 19.3C20.8443 19.4926 20.9145 19.7308 20.8974 19.9709C20.8803 20.211 20.7772 20.4369 20.607 20.6071C20.4368 20.7773 20.2109 20.8804 19.9708 20.8975C19.7307 20.9146 19.4925 20.8445 19.2999 20.7L3.29991 4.70003V4.70003Z" fill="black"/>
</svg>
