<svg width="24" height="24" viewBox="0 0 24 24" fill="none" xmlns="http://www.w3.org/2000/svg">
<path fill-rule="evenodd" clip-rule="evenodd" d="M12.9956 8.59092C12.776 8.36553 12.776 7.99998 12.9956 7.77398L15.517 5.18669C15.7373 4.96068 16.0929 4.96068 16.3138 5.18669L18.8346 7.77398C19.0549 7.99998 19.0549 8.36553 18.8346 8.59092L16.3138 11.1782C16.0929 11.4042 15.7373 11.4042 15.517 11.1782L12.9956 8.59092ZM11.6017 7.16118L9.08085 4.57389C8.86 4.34789 8.86 3.98233 9.08085 3.75633L11.6017 1.16904C11.8219 0.943654 12.1782 0.943654 12.3978 1.16904L14.9198 3.75633C15.1401 3.98233 15.1401 4.34789 14.9198 4.57389L12.3978 7.16118C12.1782 7.38656 11.8219 7.38656 11.6017 7.16118ZM11.6017 9.20421C11.8219 8.97883 12.1782 8.97883 12.3978 9.20421L14.9198 11.7915C15.1401 12.0175 15.1401 12.3824 14.9198 12.6091L12.3978 15.1957C12.1782 15.4217 11.8219 15.4217 11.6017 15.1957L9.08085 12.6091C8.86 12.3824 8.86 12.0175 9.08085 11.7915L11.6017 9.20421ZM7.68661 11.1785L5.16519 8.59116C4.94494 8.36516 4.94494 8.00022 5.16519 7.7736L7.68661 5.18693C7.90626 4.96093 8.2631 4.96093 8.48275 5.18693L11.0048 7.7736C11.2244 8.00022 11.2244 8.36516 11.0048 8.59116L8.48275 11.1785C8.2631 11.4038 7.90626 11.4038 7.68661 11.1785ZM16.3135 13.2215L18.8344 15.8088C19.0552 16.0348 19.0552 16.4003 18.8344 16.6263L16.3135 19.2136C16.0933 19.439 15.737 19.439 15.5174 19.2136L12.9954 16.6263C12.7757 16.4003 12.7757 16.0348 12.9954 15.8088L15.5174 13.2215C15.737 12.9961 16.0933 12.9961 16.3135 13.2215ZM12.3979 17.2388L14.9194 19.8261C15.1402 20.0521 15.1402 20.4177 14.9194 20.6437L12.3979 23.231C12.1783 23.4563 11.822 23.4563 11.6018 23.231L9.08037 20.6437C8.86012 20.4177 8.86012 20.0521 9.08037 19.8261L11.6018 17.2388C11.822 17.0134 12.1783 17.0134 12.3979 17.2388ZM11.0046 15.8091C11.2242 16.0345 11.2242 16.4006 11.0046 16.626L8.48317 19.2139C8.26293 19.4393 7.90668 19.4393 7.68643 19.2139L5.16501 16.626C4.94536 16.4006 4.94536 16.0345 5.16501 15.8091L7.68643 13.2218C7.90668 12.9958 8.26293 12.9958 8.48317 13.2218L11.0046 15.8091Z" fill="black"/>
</svg>
